<?xml version="1.0" standalone="no"?>
<!DOCTYPE svg PUBLIC "-//W3C//DTD SVG 20010904//EN"
 "http://www.w3.org/TR/2001/REC-SVG-20010904/DTD/svg10.dtd">
<svg version="1.0" xmlns="http://www.w3.org/2000/svg"
 width="1024.000000pt" height="1024.000000pt" viewBox="0 0 1024.000000 1024.000000"
 preserveAspectRatio="xMidYMid meet">
<metadata>
Created by potrace 1.14, written by Peter Selinger 2001-2017
</metadata>
<g transform="translate(0.000000,1024.000000) scale(0.100000,-0.100000)"
fill="#000000" stroke="none">
<path d="M3970 9279 c-36 -4 -83 -10 -105 -14 -22 -3 -52 -6 -67 -6 -16 -1
-28 -4 -28 -8 0 -4 -10 -8 -22 -9 -37 -2 -67 -9 -173 -36 -55 -15 -107 -29
-115 -31 -8 -2 -16 -4 -17 -5 -2 -2 -7 -3 -12 -4 -5 0 -13 -4 -17 -8 -4 -5
-16 -8 -26 -8 -10 0 -60 -17 -110 -37 -51 -20 -93 -36 -93 -34 0 2 -46 -20
-101 -48 -56 -28 -104 -51 -107 -51 -14 0 -304 -183 -317 -200 -3 -3 -26 -21
-52 -38 -25 -18 -62 -47 -81 -65 -19 -18 -49 -44 -67 -57 -35 -27 -200 -186
-200 -193 0 -3 -17 -22 -37 -44 -21 -21 -49 -54 -63 -72 -37 -49 -63 -81 -82
-102 -10 -10 -18 -22 -18 -25 0 -3 -11 -20 -25 -38 -14 -18 -25 -38 -25 -44 0
-7 -5 -12 -10 -12 -6 0 -13 -8 -17 -17 -4 -10 -20 -38 -36 -61 -16 -24 -48
-80 -71 -125 -22 -45 -43 -84 -46 -87 -9 -8 -91 -195 -90 -205 0 -3 -6 -18
-14 -34 -9 -16 -12 -31 -9 -35 4 -3 1 -6 -6 -6 -7 0 -9 -5 -6 -10 4 -6 2 -17
-4 -24 -10 -12 -76 -240 -85 -294 -2 -15 -5 -27 -6 -27 -3 0 -12 -70 -13 -97
0 -16 -3 -28 -7 -28 -3 0 -6 -17 -7 -37 -1 -21 -5 -67 -9 -103 -9 -78 -10
-1616 -1 -1715 10 -106 23 -210 27 -210 2 0 4 -9 5 -20 5 -44 66 -277 84 -317
10 -24 16 -49 14 -55 -3 -7 0 -13 7 -13 6 0 8 -4 5 -10 -3 -5 -1 -10 5 -10 6
0 9 -4 6 -8 -2 -4 2 -21 9 -37 8 -17 33 -73 55 -125 23 -52 47 -100 53 -105
12 -10 19 -29 20 -52 0 -7 3 -13 7 -13 3 0 22 -27 41 -60 18 -33 38 -60 42
-60 5 0 5 -4 2 -10 -3 -5 -1 -10 4 -10 6 0 11 -6 11 -13 0 -8 9 -22 20 -32 11
-10 20 -24 20 -31 0 -7 3 -14 8 -16 4 -1 19 -21 34 -43 15 -22 39 -52 53 -67
14 -15 25 -29 25 -31 0 -12 187 -207 294 -306 15 -14 31 -35 35 -46 4 -11 8
-483 9 -1049 1 -566 4 -1031 7 -1034 2 -3 23 7 45 22 22 14 44 26 50 26 5 0
10 4 10 9 0 5 8 11 18 14 9 4 35 18 57 31 22 14 49 30 60 36 11 6 38 22 60 35
22 14 59 35 83 47 23 12 42 26 42 30 0 4 5 8 10 8 6 0 36 16 67 36 31 19 65
40 77 45 12 5 35 18 51 29 50 32 138 80 147 80 4 0 8 4 8 9 0 5 17 17 38 26
20 10 56 31 80 47 23 16 42 25 42 21 0 -4 4 -3 8 3 4 6 35 26 70 45 34 18 62
37 62 42 0 4 5 5 10 2 6 -3 10 -1 10 4 0 6 4 11 9 11 5 0 37 17 71 37 99 61
154 93 170 100 8 4 17 9 20 12 3 3 22 15 43 25 20 11 37 23 37 28 0 5 5 6 10
3 6 -3 10 -1 10 4 0 6 6 11 14 11 8 0 21 6 28 13 7 7 24 18 38 25 14 7 39 21
55 32 17 11 39 24 51 29 11 5 37 21 58 35 21 14 62 37 92 51 54 26 55 26 332
26 152 0 279 0 282 -1 32 -8 318 -4 329 4 11 8 13 8 7 -1 -5 -9 1 -12 19 -11
15 2 30 9 34 18 4 8 7 79 7 157 -1 79 3 143 7 143 5 0 5 6 0 13 -4 6 -7 40 -6
75 2 70 2 71 -67 75 -25 1 -51 6 -59 11 -10 7 -12 5 -6 -5 5 -8 -1 -5 -13 5
-27 23 -28 29 -4 22 9 -3 24 -1 32 4 9 6 2 8 -23 6 -34 -3 -66 -16 -40 -16 6
0 14 -7 17 -16 5 -13 4 -14 -7 -6 -10 9 -17 8 -27 -1 -10 -10 -11 -9 -4 3 5 8
9 20 10 25 0 6 2 16 2 23 1 7 6 11 10 8 4 -2 14 0 22 5 11 7 7 8 -12 5 -16 -3
-28 -1 -28 3 0 4 -7 8 -15 8 -19 0 -19 -7 1 -21 13 -10 13 -12 -5 -12 -11 0
-19 3 -19 6 2 20 -4 30 -13 25 -7 -5 -5 -15 5 -30 15 -22 14 -24 -4 -22 -11 1
-19 6 -19 12 3 27 -2 46 -11 40 -8 -5 -8 -11 0 -20 8 -9 8 -15 0 -20 -6 -3 -8
-10 -5 -15 3 -5 1 -11 -5 -15 -6 -4 -7 -12 -4 -18 4 -7 3 -8 -2 -4 -5 5 -10
13 -10 18 -1 5 -3 11 -4 14 -1 3 -3 8 -4 13 -1 4 -5 13 -9 20 -5 7 -4 12 2 12
6 0 11 -4 11 -10 0 -5 7 -10 16 -10 14 0 15 2 3 17 -11 13 -11 17 -1 20 6 3 9
10 5 16 -5 9 -3 9 8 1 15 -11 119 -11 138 0 6 4 11 1 11 -6 0 -8 3 -9 8 -2 5
7 196 11 592 12 559 1 687 4 720 15 8 3 49 10 90 17 41 6 89 16 107 21 17 6
44 12 59 15 15 3 36 10 46 15 11 6 22 8 25 6 5 -6 146 43 213 75 119 55 212
104 265 138 17 11 40 25 53 31 12 7 22 16 22 21 0 4 6 8 14 8 8 0 21 6 28 14
26 25 128 106 128 101 0 -3 54 49 120 114 66 66 120 123 120 127 0 3 8 14 18
23 19 18 88 101 115 141 45 64 113 167 123 185 6 11 22 40 36 65 76 135 136
267 183 402 19 54 32 98 28 98 -3 0 -1 6 4 13 11 13 26 61 27 87 1 8 5 21 10
28 4 7 5 16 2 19 -3 3 -1 12 4 19 6 6 10 16 8 20 -1 5 3 32 10 59 7 28 12 59
11 70 0 11 6 45 13 75 10 43 13 249 13 955 -1 880 -1 903 -23 1020 -12 66 -24
132 -26 148 -3 15 -8 32 -11 37 -4 6 -9 23 -11 38 -8 42 -24 105 -33 127 -5
11 -16 43 -24 70 -30 97 -159 392 -177 405 -4 3 -10 14 -14 25 -3 11 -22 44
-41 73 -19 30 -35 56 -35 58 0 11 -103 154 -111 154 -6 0 -8 4 -5 8 3 5 -8 23
-24 41 -17 18 -30 36 -30 42 0 5 -4 9 -8 9 -4 0 -24 21 -43 48 -55 72 -241
262 -257 262 -9 0 -13 3 -10 6 11 10 -247 214 -271 214 -5 0 -11 6 -14 13 -3
6 -27 23 -53 37 -27 14 -55 30 -62 37 -8 7 -18 11 -23 8 -5 -4 -9 -2 -9 4 0
11 -263 141 -285 141 -8 0 -15 4 -15 9 0 5 -10 11 -22 14 -13 3 -60 18 -105
35 -45 16 -85 27 -88 24 -3 -3 -5 0 -5 7 0 6 -6 11 -12 9 -7 -1 -44 7 -83 19
-38 12 -88 25 -110 29 -22 3 -44 9 -50 12 -10 6 -15 7 -90 17 -22 4 -53 8 -70
10 -212 32 -247 33 -1170 32 -511 0 -959 -4 -995 -8z m997 -6291 c2 -17 0 -19
-7 -8 -5 8 -6 18 -4 22 8 12 10 10 11 -14z m123 7 c0 -8 -4 -15 -8 -15 -5 0
-9 7 -9 15 0 8 4 15 9 15 4 0 8 -7 8 -15z m-30 -19 c0 -2 -9 -6 -20 -9 -11 -3
-18 -1 -14 4 5 9 34 13 34 5z"/>
</g>
</svg>
